<svg width="20" height="20" viewBox="0 0 20 20" fill="none" xmlns="http://www.w3.org/2000/svg">
<path fill-rule="evenodd" clip-rule="evenodd" d="M10 0C4.486 0 0 4.486 0 10C0 15.514 4.486 20 10 20C15.514 20 20 15.514 20 10C20 4.486 15.514 0 10 0" fill="white"/>
<path fill-rule="evenodd" clip-rule="evenodd" d="M10 18C5.589 18 2 14.411 2 10C2 5.589 5.589 2 10 2C14.411 2 18 5.589 18 10C18 14.411 14.411 18 10 18" fill="#356AFF"/>
<path fill-rule="evenodd" clip-rule="evenodd" d="M14 8.99978H8.336L9.586 7.68978C9.967 7.29078 9.952 6.65778 9.553 6.27578C9.153 5.89578 8.521 5.90978 8.139 6.30978L5.276 9.30978C5.238 9.34978 5.221 9.39978 5.19 9.44478C5.149 9.50378 5.103 9.55778 5.076 9.62578C5.039 9.71678 5.027 9.81178 5.019 9.90878C5.016 9.93978 5 9.96778 5 9.99978C5 10.0018 5.001 10.0028 5.001 10.0048C5.002 10.1348 5.027 10.2638 5.078 10.3858C5.128 10.5068 5.202 10.6158 5.293 10.7078L8.293 13.7068C8.488 13.9018 8.744 13.9998 9 13.9998C9.256 13.9998 9.512 13.9018 9.707 13.7068C10.098 13.3158 10.098 12.6838 9.707 12.2928L8.414 10.9998H14C14.552 10.9998 15 10.5518 15 9.99978C15 9.44778 14.552 8.99978 14 8.99978" fill="white"/>
</svg>
